<svg version="1.1" xmlns="http://www.w3.org/2000/svg" viewBox="0 0 1325.7283954923118 979.3094793238049" width="1325.7283954923118" height="979.3094793238049">
  <!-- svg-source:excalidraw -->
  
  <defs>
    <style>
      @font-face {
        font-family: "Virgil";
        src: url("https://excalidraw.com/Virgil.woff2");
      }
      @font-face {
        font-family: "Cascadia";
        src: url("https://excalidraw.com/Cascadia.woff2");
      }
    </style>
  </defs>
  <rect x="0" y="0" width="1325.7283954923118" height="979.3094793238049" fill="#ffffff"></rect><g stroke-linecap="round" transform="translate(61.71743112820536 201.0526874504951) rotate(0 9.843562400334292 9.060059446847617)"><path d="M11.09 0.82 C13.19 0.79, 16.58 0.95, 17.88 2.14 C19.18 3.33, 19.08 5.96, 18.89 7.96 C18.71 9.96, 17.99 12.6, 16.76 14.14 C15.52 15.68, 13.27 16.62, 11.5 17.2 C9.72 17.78, 7.8 18.39, 6.1 17.61 C4.39 16.83, 2.29 14.53, 1.27 12.54 C0.25 10.55, -0.55 7.39, -0.01 5.65 C0.52 3.92, 2.45 3.12, 4.48 2.14 C6.51 1.16, 10.52 -0.24, 12.16 -0.23 C13.8 -0.22, 14.39 2, 14.33 2.22 M14 0.42 C16.04 1.09, 18.23 2.25, 18.97 4.01 C19.71 5.78, 19.02 8.76, 18.46 11.01 C17.91 13.26, 17.41 16.18, 15.64 17.51 C13.87 18.85, 9.82 19.53, 7.85 19.04 C5.88 18.55, 4.93 16.08, 3.83 14.57 C2.73 13.06, 1.83 11.51, 1.25 9.98 C0.67 8.44, -0.5 7.04, 0.37 5.37 C1.23 3.7, 3.99 0.9, 6.44 -0.06 C8.89 -1.01, 13.71 -0.4, 15.06 -0.39 C16.42 -0.37, 14.59 -0.2, 14.57 0.05" stroke="#000000" stroke-width="2" fill="none"></path></g><g stroke-linecap="round"><g transform="translate(70.88792607070661 219.52616196770418) rotate(0 -0.68472152513624 11.55691364913855)"><path d="M0.15 0.31 C0.11 3.81, -0.52 18.33, -0.71 22.09 M-1.22 -0.58 C-1.37 3.65, -1.44 20.1, -1.52 23.69" stroke="#000000" stroke-width="2" fill="none"></path></g></g><g stroke-linecap="round"><g transform="translate(70.28210752637119 242.11253777878414) rotate(0 3.9135966387059966 7.13033138665179)"><path d="M0.31 0.26 C1.59 2.46, 7.27 11.04, 8.82 13.39 M-0.99 -0.66 C0.05 1.74, 6.22 12.72, 7.93 14.92" stroke="#000000" stroke-width="2" fill="none"></path></g></g><g stroke-linecap="round"><g transform="translate(68.98496902242539 241.27894798830584) rotate(0 -4.075484368165974 6.238931115154344)"><path d="M0.26 0.12 C-1.01 2.29, -6.33 11.44, -7.45 13.34 M-1.07 -0.86 C-2.51 0.96, -7.46 9.48, -8.41 11.68" stroke="#000000" stroke-width="2" fill="none"></path></g></g><g stroke-linecap="round"><g transform="translate(59.27381491358358 231.98055917694774) rotate(0 5.557886239769914 -4.021228401594499)"><path d="M0.12 -0.01 C2.14 -1.12, 10.65 -5.03, 12.39 -6.41 M-1.27 -1.06 C0.63 -2.52, 9.54 -6.96, 11.91 -8.03" stroke="#000000" stroke-width="2" fill="none"></path></g></g><g stroke-linecap="round"><g transform="translate(70.64721098986513 223.5381156456458) rotate(0 3.8510803606739046 5.111486257583067)"><path d="M-0.01 0.89 C1.48 2.35, 7.96 7.51, 9.18 8.86 M-1.48 0.31 C-0.09 1.88, 6.87 8.32, 8.73 9.91" stroke="#000000" stroke-width="2" fill="none"></path></g></g><g stroke-linecap="round" transform="translate(59.71743112820536 391.0526874504951) rotate(0 9.843562400334292 9.060059446847617)"><path d="M8.07 -0.21 C10.11 -0.69, 13.17 0.33, 15.1 1.41 C17.02 2.49, 18.83 4.59, 19.62 6.27 C20.41 7.96, 20.66 9.76, 19.85 11.53 C19.03 13.29, 16.7 15.81, 14.73 16.87 C12.75 17.93, 9.91 18.17, 8 17.86 C6.1 17.55, 4.53 16.32, 3.31 15.01 C2.09 13.71, 1.02 12, 0.7 10.03 C0.38 8.07, 0.22 4.87, 1.37 3.21 C2.52 1.55, 6.31 0.66, 7.6 0.05 C8.89 -0.56, 8.88 -0.49, 9.12 -0.47 M6.34 -0.18 C8.13 -0.78, 10.95 0.88, 13.05 1.67 C15.14 2.46, 17.61 3.02, 18.89 4.55 C20.18 6.08, 21.21 8.76, 20.78 10.85 C20.34 12.93, 18.08 15.84, 16.29 17.04 C14.5 18.23, 12.09 17.97, 10.03 17.99 C7.97 18.02, 5.79 18.15, 3.93 17.18 C2.07 16.21, -0.85 14, -1.13 12.18 C-1.41 10.36, 1.03 8.09, 2.27 6.26 C3.51 4.43, 5.77 2.35, 6.32 1.22 C6.86 0.09, 5.35 -0.56, 5.54 -0.54" stroke="#000000" stroke-width="2" fill="none"></path></g><g stroke-linecap="round"><g transform="translate(68.8879260707065 409.5261619677042) rotate(0 -0.643745694464883 10.277302701660915)"><path d="M-1.02 -0.48 C-1.11 3.26, -1.03 18.68, -0.98 22.34 M0.64 -1.78 C0.43 1.6, -1.6 16.35, -1.93 20.41" stroke="#000000" stroke-width="2" fill="none"></path></g></g><g stroke-linecap="round"><g transform="translate(68.28210752637119 432.11253777878414) rotate(0 4.2914023484284485 6.288723919608628)"><path d="M-0.48 -0.01 C1.05 2.43, 7.62 11.29, 9.07 13.64 M1.46 -1.06 C2.88 1.09, 7.36 9.45, 8.31 11.64" stroke="#000000" stroke-width="2" fill="none"></path></g></g><g stroke-linecap="round"><g transform="translate(66.98496902242528 431.27894798830584) rotate(0 -4.015246681531892 6.3904581302322185)"><path d="M-0.01 0.37 C-1.04 2.45, -6.07 9.9, -7.2 11.97 M-1.47 -0.48 C-2.55 1.8, -7.07 11.4, -8.02 13.26" stroke="#000000" stroke-width="2" fill="none"></path></g></g><g stroke-linecap="round"><g transform="translate(57.27381491358369 421.98055917694774) rotate(0 5.06506291318226 -4.104929695062992)"><path d="M0.37 0.24 C2.29 -0.87, 9.1 -5.54, 11.02 -6.69 M-0.89 -0.68 C0.87 -2.14, 7.79 -7.14, 9.83 -8.45" stroke="#000000" stroke-width="2" fill="none"></path></g></g><g stroke-linecap="round"><g transform="translate(68.64721098986524 413.5381156456458) rotate(0 3.9062826469173615 4.208290028733359)"><path d="M0.24 -0.47 C1.73 1.16, 7.45 8.36, 8.9 10.18 M-1.09 -1.77 C0.3 -0.54, 6.7 6.56, 8.31 8.26" stroke="#000000" stroke-width="2" fill="none"></path></g></g><g stroke-linecap="round" transform="translate(52.27298668376102 581.9415763393843) rotate(0 9.843562400334292 9.060059446847617)"><path d="M6.93 0.3 C8.85 -0.38, 12.67 -0.95, 14.53 -0.1 C16.39 0.76, 17.12 3.5, 18.1 5.43 C19.08 7.36, 20.94 9.55, 20.39 11.47 C19.84 13.4, 16.61 15.8, 14.82 16.99 C13.04 18.19, 11.6 18.82, 9.67 18.65 C7.73 18.47, 4.77 17.45, 3.23 15.94 C1.69 14.43, 0.73 11.42, 0.44 9.61 C0.16 7.8, 0.31 6.49, 1.51 5.08 C2.71 3.67, 6.65 1.86, 7.66 1.15 C8.67 0.44, 7.69 0.77, 7.57 0.84 M13.14 1.54 C15.06 1.98, 18.16 3.44, 19.32 5.1 C20.49 6.76, 20.61 9.49, 20.13 11.5 C19.64 13.5, 18.1 16.22, 16.41 17.15 C14.72 18.08, 12.25 17.44, 10.01 17.07 C7.76 16.7, 4.77 15.86, 2.92 14.94 C1.08 14.03, -0.95 13.34, -1.06 11.57 C-1.16 9.81, 0.79 6.1, 2.27 4.34 C3.76 2.59, 5.95 1.68, 7.85 1.02 C9.75 0.37, 12.65 0.66, 13.66 0.42 C14.68 0.17, 13.96 -0.6, 13.93 -0.45" stroke="#000000" stroke-width="2" fill="none"></path></g><g stroke-linecap="round"><g transform="translate(61.443481626262155 600.4150508565933) rotate(0 -0.2240821784820355 10.821397942641283)"><path d="M-1.03 -0.7 C-1.27 2.99, -0.31 17.44, -0.32 21.2 M0.62 1.55 C0.19 5.45, -0.5 18.74, -0.92 22.34" stroke="#000000" stroke-width="2" fill="none"></path></g></g><g stroke-linecap="round"><g transform="translate(60.83766308192685 623.0014266676733) rotate(0 4.772853453275275 7.357994984712377)"><path d="M-0.7 0.65 C0.78 3.04, 6.38 11.01, 7.93 13.29 M1.14 -0.06 C3.07 2.62, 9.14 12.68, 10.24 14.77" stroke="#000000" stroke-width="2" fill="none"></path></g></g><g stroke-linecap="round"><g transform="translate(59.54052457798093 622.167836877195) rotate(0 -3.9510388034191237 6.534341213140806)"><path d="M0.65 -0.76 C-0.44 1.41, -6.36 10.31, -7.55 12.35 M-0.47 1.45 C-1.63 3.88, -7.5 12.03, -8.55 13.83" stroke="#000000" stroke-width="2" fill="none"></path></g></g><g stroke-linecap="round"><g transform="translate(49.82937046913935 612.8694480658369) rotate(0 5.317422486906878 -4.075295791559483)"><path d="M-0.76 -0.11 C1.25 -1.28, 9.52 -5.1, 11.4 -6.42 M1.04 -1.21 C2.95 -2.77, 8.43 -7.07, 10.4 -8.04" stroke="#000000" stroke-width="2" fill="none"></path></g></g><g stroke-linecap="round"><g transform="translate(61.2027665454209 604.427004534535) rotate(0 3.774494431280118 4.304366406470649)"><path d="M-0.11 -0.1 C1.31 1.49, 7.89 7.06, 9.17 8.8 M-1.62 -1.2 C-0.33 0.58, 7.37 8.23, 8.72 9.81" stroke="#000000" stroke-width="2" fill="none"></path></g></g><g stroke-linecap="round" transform="translate(45.16187557264993 767.1637985616064) rotate(0 9.843562400334292 9.060059446847617)"><path d="M11.94 -0.21 C14.07 0.03, 17.11 1.65, 18.5 3.28 C19.89 4.91, 20.53 7.66, 20.29 9.58 C20.05 11.49, 18.52 13.33, 17.06 14.78 C15.59 16.22, 13.56 18.06, 11.49 18.26 C9.42 18.45, 6.44 17.16, 4.63 15.95 C2.82 14.74, 1.18 12.75, 0.61 11.01 C0.03 9.27, 0.48 7.1, 1.19 5.51 C1.9 3.92, 3.09 2.45, 4.86 1.46 C6.62 0.47, 10.24 -0.31, 11.78 -0.43 C13.31 -0.55, 13.81 0.58, 14.06 0.74 M7.52 0.83 C9.75 0.44, 13.58 -0.72, 15.48 0.2 C17.37 1.13, 18.08 4.24, 18.89 6.39 C19.71 8.54, 21.12 11.25, 20.37 13.1 C19.63 14.95, 16.41 16.58, 14.43 17.49 C12.45 18.4, 10.74 18.94, 8.48 18.53 C6.22 18.12, 2.21 16.64, 0.87 15.03 C-0.46 13.43, 0.39 10.66, 0.47 8.89 C0.54 7.11, -0.13 5.71, 1.33 4.38 C2.8 3.06, 8.04 1.68, 9.27 0.92 C10.5 0.16, 9.05 -0.06, 8.7 -0.16" stroke="#000000" stroke-width="2" fill="none"></path></g><g stroke-linecap="round"><g transform="translate(54.33237051515107 785.6372730788155) rotate(0 -0.06408001453326051 11.48545457988655)"><path d="M-0.47 0.46 C-0.6 4.1, -0.72 18.33, -0.77 21.84 M1.48 -0.34 C1.22 3.49, -1.14 19.49, -1.61 23.31" stroke="#000000" stroke-width="2" fill="none"></path></g></g><g stroke-linecap="round"><g transform="translate(53.72655197081576 808.2236488898955) rotate(0 3.908071438338993 6.447799313285259)"><path d="M0.46 0.2 C1.89 2.55, 7.27 11.24, 8.57 13.64 M-0.75 -0.74 C0.5 1.27, 6.22 9.37, 7.55 11.64" stroke="#000000" stroke-width="2" fill="none"></path></g></g><g stroke-linecap="round"><g transform="translate(52.429413466869846 807.3900590994169) rotate(0 -3.9113885730113793 6.023905243269269)"><path d="M0.2 -0.13 C-0.92 1.79, -6.13 9.91, -7.2 11.99 M-1.16 -1.24 C-2.37 0.8, -7.15 10.82, -8.02 13.29" stroke="#000000" stroke-width="2" fill="none"></path></g></g><g stroke-linecap="round"><g transform="translate(42.71825935802826 798.091670288059) rotate(0 4.693391083958602 -3.709062309198771)"><path d="M-0.13 0.24 C1.63 -0.82, 9.12 -5.02, 11.04 -6.17 M-1.66 -0.68 C-0.13 -2.06, 7.82 -6.34, 9.86 -7.66" stroke="#000000" stroke-width="2" fill="none"></path></g></g><g stroke-linecap="round"><g transform="translate(54.091655434309814 789.6492267567571) rotate(0 4.165414192937817 4.7176214876474205)"><path d="M0.24 -0.45 C1.78 1.18, 7.97 7.91, 9.42 9.69 M-1.09 -1.74 C0.37 0.1, 7.5 9.54, 9.1 11.17" stroke="#000000" stroke-width="2" fill="none"></path></g></g><g transform="translate(39.55555555555543 164.99261813693533) rotate(0 33.31209630783218 12.618218298421311)"><text x="0" y="17.236436596842577" font-family="Virgil, Segoe UI Emoji" font-size="20.18914927747407px" fill="#000000" text-anchor="start" style="white-space: pre;" direction="ltr">Farmer</text></g><g transform="translate(10.55555555555543 343.99261813693533) rotate(0 60 13)"><text x="0" y="18" font-family="Virgil, Segoe UI Emoji" font-size="20.18914927747407px" fill="#000000" text-anchor="start" style="white-space: pre;" direction="ltr">Transporter</text></g><g transform="translate(17.111111111111086 532.8815070258245) rotate(0 45 13)"><text x="0" y="18" font-family="Virgil, Segoe UI Emoji" font-size="20.18914927747407px" fill="#000000" text-anchor="start" style="white-space: pre;" direction="ltr">Merchant</text></g><g transform="translate(10 718.1037292480466) rotate(0 45.5 13)"><text x="0" y="18" font-family="Virgil, Segoe UI Emoji" font-size="20.18914927747407px" fill="#000000" text-anchor="start" style="white-space: pre;" direction="ltr">Customer</text></g><g stroke-linecap="round"><g transform="translate(81.28571428571445 228.82595147026905) rotate(0 119.98214532543903 1.6644076767422007)"><path d="M0.76 1.05 C40.62 1.36, 200.44 2.75, 240.26 2.78 M-0.3 0.55 C39.27 0.48, 198.72 0.96, 239.12 1.26" stroke="#000000" stroke-width="1" fill="none"></path></g><g transform="translate(81.28571428571445 228.82595147026905) rotate(0 119.98214532543903 1.6644076767422007)"><path d="M212.63 10.77 C223.86 5.64, 232.46 4.37, 238.99 1.71 M210.1 11.91 C220.6 8.28, 230.44 4.85, 238.9 1.19" stroke="#000000" stroke-width="1" fill="none"></path></g><g transform="translate(81.28571428571445 228.82595147026905) rotate(0 119.98214532543903 1.6644076767422007)"><path d="M212.73 -9.75 C224.08 -6.78, 232.64 0.04, 238.99 1.71 M210.2 -8.61 C220.55 -5.09, 230.36 -1.39, 238.9 1.19" stroke="#000000" stroke-width="1" fill="none"></path></g></g><g stroke-linecap="round" transform="translate(339.6201259068082 142.65950385788278) rotate(0 7.759447808027517 390.3925448944308)"><path d="M-1.36 -1.48 C4.25 1.38, 11.77 -0.13, 16.28 1.55 M0.59 0.77 C3.06 0.19, 6.26 0.12, 15.12 -0.28 M15.55 0.03 C12.55 257.65, 13.08 513.34, 15.48 780.35 M15.56 -0.27 C18.14 301.3, 18.14 602.54, 15.25 781.01 M14.02 781.54 C10.73 779.66, 7.4 782.31, 0.07 781.48 M15.88 780.01 C10.31 780.24, 6.88 780.18, 0.01 780.03 M-0.47 781.19 C1.11 473.16, 0.54 163.37, -0.45 -0.15 M-0.35 780.65 C-2.64 545.99, -2.37 310.74, -0.25 0.11" stroke="#000000" stroke-width="1" fill="none"></path></g><g stroke-linecap="round" transform="translate(629.6201259068082 137.65950385788278) rotate(0 7.759447808027517 390.3925448944308)"><path d="M0.86 -0.97 C3.74 -0.63, 6.02 1.56, 15.64 0.14 M0.33 0.63 C4.8 0.64, 11.65 -0.59, 15.67 -0.42 M16.26 -0.05 C16.62 193.5, 17.16 386.2, 15.99 781.34 M15.83 0.05 C13.5 290.42, 13.91 580.85, 15.8 780.96 M16.19 781.33 C11.58 779.63, 5.37 781.29, -1.15 779.39 M15.56 781.49 C10.64 781.37, 5.12 780.9, 0.12 780.51 M-0.04 780.87 C-0.7 548.84, -0.94 315.07, -0.08 -0.03 M0.1 781.12 C1.77 550.73, 2.34 319.9, -0.23 0.2" stroke="#000000" stroke-width="1" fill="none"></path></g><g stroke-linecap="round" transform="translate(925.2867925734747 135.4372816356606) rotate(0 7.759447808027517 390.3925448944308)"><path d="M0.52 1.32 C4.94 1.09, 11.67 -0.75, 16.77 0.3 M-0.69 0.16 C3.94 -0.29, 6.21 -0.75, 15.87 -0.64 M14.79 -0.18 C14.02 267.33, 14.15 536.09, 16.21 781.23 M15.3 -0.26 C17.52 293.02, 17.92 586.36, 15.23 781.06 M15.04 780.65 C11.75 782.06, 6.74 781.62, -1.31 780.79 M16.13 780.14 C9.65 781.38, 4.1 780.24, 0.27 780.6 M-0.21 780.84 C-1.4 600.81, -0.31 421.24, 0.25 -0.07 M-0.2 780.77 C2.55 608.46, 2.7 436.98, 0.19 -0.04" stroke="#000000" stroke-width="1" fill="none"></path></g><g stroke-linecap="round" transform="translate(1230.8423481290306 137.65950385788278) rotate(0 7.759447808027517 390.3925448944308)"><path d="M-0.79 -1.01 C4.11 1.26, 10.53 1.6, 15.6 -0.71 M-0.21 -0.53 C3.46 0.15, 8.09 -0.11, 16.27 0.36 M14.86 -0.17 C14.73 156.87, 14.18 313.16, 16.23 781.44 M15.52 0.09 C12.48 232.95, 12.74 465.84, 15.46 780.57 M14.39 781.29 C10.21 782.38, 6.88 780.23, -0.09 780.04 M15.02 780.27 C11.65 781.31, 7.72 780.8, 0.09 780.74 M0.57 780.01 C-3.84 578.87, -3.57 378.04, -0.02 0.04 M0.13 780.84 C-0.31 493.53, -0.14 206.33, 0.1 0.02" stroke="#000000" stroke-width="1" fill="none"></path></g><g stroke-linecap="round"><g transform="translate(353.52997698102695 111.42986382378467) rotate(0 -1.8907241921871787 14.56080140285195)"><path d="M-1.05 -1.14 C-1.63 3.74, -2.73 25.22, -2.73 30.26" stroke="#000000" stroke-width="1.5" fill="none" stroke-dasharray="8 9"></path></g></g><g stroke-linecap="round"><g transform="translate(643.529976981027 106.42986382378467) rotate(0 -0.5517720658332337 13.918892635777581)"><path d="M0.66 -0.75 C0.17 4.06, -1.2 23.42, -1.76 28.59" stroke="#000000" stroke-width="1.5" fill="none" stroke-dasharray="8 9"></path></g></g><g stroke-linecap="round"><g transform="translate(939.1966436476935 104.2076416015625) rotate(0 -1.0531089048832882 15.488334850594413)"><path d="M0.4 1.02 C-0.15 6.01, -2.15 25.37, -2.51 29.95" stroke="#000000" stroke-width="1.5" fill="none" stroke-dasharray="8 9"></path></g></g><g stroke-linecap="round"><g transform="translate(1244.7521992032493 106.42986382378467) rotate(0 -1.5394316632300615 14.602466692402913)"><path d="M-0.61 -0.78 C-0.86 4.37, -2.36 24.82, -2.47 29.99" stroke="#000000" stroke-width="1.5" fill="none" stroke-dasharray="8 9"></path></g></g><g stroke-linecap="round"><g transform="translate(346.6204903598514 933.0314212245389) rotate(0 0.5572272788566579 17.726743844842417)"><path d="M-1.14 -0.82 C-0.92 5.4, 1.88 30.14, 2.26 36.28" stroke="#000000" stroke-width="1.5" fill="none" stroke-dasharray="8 9"></path></g></g><g stroke-linecap="round"><g transform="translate(636.6204903598514 928.0314212245389) rotate(0 -0.08468148821771138 17.348648399060608)"><path d="M-0.75 0.14 C-0.61 5.79, 0.08 28.66, 0.58 34.56" stroke="#000000" stroke-width="1.5" fill="none" stroke-dasharray="8 9"></path></g></g><g stroke-linecap="round"><g transform="translate(932.2871570265179 925.8091990023167) rotate(0 1.4862948815635946 17.493799821233324)"><path d="M1.02 -0.6 C1.34 5.26, 2.03 29.43, 1.95 35.59" stroke="#000000" stroke-width="1.5" fill="none" stroke-dasharray="8 9"></path></g></g><g stroke-linecap="round"><g transform="translate(1237.8427125820738 928.0314212245391) rotate(0 0.5988925684076776 17.751935762112907)"><path d="M-0.78 -0.56 C-0.3 5.55, 1.48 30.06, 1.98 36.07" stroke="#000000" stroke-width="1.5" fill="none" stroke-dasharray="8 9"></path></g></g><g stroke-linecap="round" transform="translate(284.06525530133945 17.22222222222217) rotate(0 70.220458984375 42.5)"><path d="M1.94 1.46 C29.81 1.94, 61.62 -0.9, 142.38 -1.88 M0.06 -0.2 C52.84 -0.24, 105.38 0.56, 139.5 -0.88 M142.4 1.23 C139.46 25.69, 139.38 53.29, 141.97 86.89 M140.88 0.57 C140.61 25.6, 140.43 52.28, 141.31 85 M138.99 85.4 C113.86 84.57, 84.24 84.49, -1.08 83.48 M139.89 85.89 C91.21 84.01, 42.25 84.95, -0.13 85.27 M1.78 85.36 C-2.3 63.4, -0.8 44.04, 1.53 0.22 M0.11 85.06 C-0.65 66.27, 0.54 48.8, 0.2 0.75" stroke="#000000" stroke-width="1" fill="none"></path></g><g stroke-linecap="round" transform="translate(574.0652553013394 12.222222222222172) rotate(0 70.220458984375 42.5)"><path d="M-0.85 -1.41 C51.84 -0.01, 99.92 0.96, 138.51 -0.69 M0.76 0.78 C47.22 1.51, 95.54 0.79, 140.83 0.17 M141.14 1.05 C139.76 34.57, 141.78 68.21, 139.21 85.57 M140.69 0.8 C141.07 32.89, 140.99 64.89, 140.23 85.17 M138.92 85.98 C92.81 84.89, 42.14 87.33, -1.99 86.94 M141 85.51 C97.54 86.1, 54.37 85.93, 0.4 84.89 M1.88 85.76 C-0.88 59.7, -0.15 34.7, -1.33 1.52 M0.62 85.68 C-1.39 56.79, -0.21 30.47, 0.86 -0.99" stroke="#000000" stroke-width="1" fill="none"></path></g><g stroke-linecap="round" transform="translate(869.731921968006 10) rotate(0 70.220458984375 42.5)"><path d="M1.42 0.31 C45.86 2.31, 94.02 -0.9, 141.16 0.26 M-0.34 -0.78 C28.66 -0.51, 58.37 -0.53, 140.15 -0.75 M139.1 -1.18 C141.14 19.52, 141.37 37.09, 141.94 86.71 M140.07 0.17 C139.92 20.09, 140.58 41.14, 139.7 85.84 M141.92 83.72 C103.51 83.42, 64.76 86.17, -0.27 84.54 M141.25 84.41 C86.58 84.65, 33.81 83.6, 0.21 85.08 M-0.09 85.88 C0.8 62.38, -0.24 36.92, -1.49 0.88 M-0.94 85.93 C0.27 64.25, -0.07 42.6, 0.19 0.31" stroke="#000000" stroke-width="1" fill="none"></path></g><g stroke-linecap="round" transform="translate(1175.2874775235618 12.222222222222172) rotate(0 70.220458984375 42.5)"><path d="M1.48 1.1 C36.89 0.76, 69.04 -0.35, 140.11 -1.89 M0 0.45 C37.91 1.71, 76.96 -0.24, 140.26 0.04 M140.48 -1.96 C138.87 20.32, 141.91 37.05, 138.74 84.14 M140.04 -0.3 C139.69 25.37, 140.09 50.72, 140.31 85.48 M142.4 84.62 C107.74 83.86, 75.71 82.94, 0.16 84.53 M141.16 84.89 C107.36 85.09, 74.08 84.55, 1 85.88 M-1.38 83.87 C0.75 53.43, 0.91 23.29, 0.35 1.79 M-0.26 86 C-0.47 57.01, -0.07 28.06, 0.17 -0.7" stroke="#000000" stroke-width="1" fill="none"></path></g><g transform="translate(289.06525530133945 22.22222222222217) rotate(0 65 37.5)"><text x="65" y="18" font-family="Virgil, Segoe UI Emoji" font-size="20px" fill="#000000" text-anchor="middle" style="white-space: pre;" direction="ltr">Generate </text><text x="65" y="43" font-family="Virgil, Segoe UI Emoji" font-size="20px" fill="#000000" text-anchor="middle" style="white-space: pre;" direction="ltr">product </text><text x="65" y="68" font-family="Virgil, Segoe UI Emoji" font-size="20px" fill="#000000" text-anchor="middle" style="white-space: pre;" direction="ltr">Token</text></g><g transform="translate(579.0652553013394 29.72222222222217) rotate(0 65 25)"><text x="65" y="18" font-family="Virgil, Segoe UI Emoji" font-size="20px" fill="#000000" text-anchor="middle" style="white-space: pre;" direction="ltr">Record the </text><text x="65" y="43" font-family="Virgil, Segoe UI Emoji" font-size="20px" fill="#000000" text-anchor="middle" style="white-space: pre;" direction="ltr">shipping info</text></g><g transform="translate(874.731921968006 27.5) rotate(0 65 25)"><text x="65" y="18" font-family="Virgil, Segoe UI Emoji" font-size="20px" fill="#000000" text-anchor="middle" style="white-space: pre;" direction="ltr">Record the </text><text x="65" y="43" font-family="Virgil, Segoe UI Emoji" font-size="20px" fill="#000000" text-anchor="middle" style="white-space: pre;" direction="ltr">delivery info</text></g><g transform="translate(1180.2874775235618 29.72222222222217) rotate(0 65 25)"><text x="65" y="18" font-family="Virgil, Segoe UI Emoji" font-size="20px" fill="#000000" text-anchor="middle" style="white-space: pre;" direction="ltr">Query the </text><text x="65" y="43" font-family="Virgil, Segoe UI Emoji" font-size="20px" fill="#000000" text-anchor="middle" style="white-space: pre;" direction="ltr">product info</text></g><g stroke-linecap="round"><g transform="translate(91.28571428571445 416.82595147026905) rotate(0 264.69861082024875 -0.6540957455430316)"><path d="M-0.37 -0.28 C87.91 -0.42, 441.25 0.14, 529.77 0.17 M1.64 -1.48 C89.73 -1.4, 440.59 -1.26, 528.69 -1.34" stroke="#000000" stroke-width="1" fill="none"></path></g><g transform="translate(91.28571428571445 416.82595147026905) rotate(0 264.69861082024875 -0.6540957455430316)"><path d="M500.03 8.53 C511.03 7.01, 519.24 2.47, 529.97 -3.23 M499.95 8.96 C510.35 5.33, 519.34 1.33, 528.37 -2.02" stroke="#000000" stroke-width="1" fill="none"></path></g><g transform="translate(91.28571428571445 416.82595147026905) rotate(0 264.69861082024875 -0.6540957455430316)"><path d="M500.03 -11.99 C511.2 -7.2, 519.41 -5.44, 529.97 -3.23 M499.95 -11.56 C510.29 -8.59, 519.28 -6, 528.37 -2.02" stroke="#000000" stroke-width="1" fill="none"></path></g></g><g stroke-linecap="round"><g transform="translate(81.61595572823205 606.3776974149512) rotate(0 418.0879048459843 -2.175059603819818)"><path d="M0.78 -0.34 C140.32 -0.83, 697.42 -1.85, 836.45 -2 M-0.28 -1.56 C139.24 -2.52, 696.29 -3.76, 835.91 -4.01" stroke="#000000" stroke-width="1" fill="none"></path></g><g transform="translate(81.61595572823205 606.3776974149512) rotate(0 418.0879048459843 -2.175059603819818)"><path d="M807.19 7.61 C814.62 2.52, 822.51 2.47, 837.25 -5.4 M808.18 5.38 C815.73 2.83, 824.02 -0.19, 835.28 -4.04" stroke="#000000" stroke-width="1" fill="none"></path></g><g transform="translate(81.61595572823205 606.3776974149512) rotate(0 418.0879048459843 -2.175059603819818)"><path d="M807.14 -12.91 C814.75 -13.19, 822.65 -8.43, 837.25 -5.4 M808.13 -15.14 C815.87 -11.9, 824.17 -9.14, 835.28 -4.04" stroke="#000000" stroke-width="1" fill="none"></path></g></g><g stroke-linecap="round"><g transform="translate(70.50793650793685 794.7148403591582) rotate(0 577.0049925747618 -2.43695587697232)"><path d="M0.99 -0.52 C192.87 -1.52, 959.78 -5.96, 1151.58 -6.69 M0.05 1.81 C192.3 0.98, 962.17 -4.29, 1153.96 -5.75" stroke="#000000" stroke-width="1" fill="none"></path></g><g transform="translate(70.50793650793685 794.7148403591582) rotate(0 577.0049925747618 -2.43695587697232)"><path d="M1124.97 3.65 C1133.18 0.35, 1145.32 -3, 1153.49 -4.65 M1125.66 4.72 C1134.58 1.37, 1143.65 -1.01, 1153.19 -6.07" stroke="#000000" stroke-width="1" fill="none"></path></g><g transform="translate(70.50793650793685 794.7148403591582) rotate(0 577.0049925747618 -2.43695587697232)"><path d="M1124.82 -16.87 C1132.96 -13.48, 1145.14 -10.14, 1153.49 -4.65 M1125.52 -15.8 C1134.63 -12.39, 1143.75 -8, 1153.19 -6.07" stroke="#000000" stroke-width="1" fill="none"></path></g></g></svg>