<svg version="1.1" xmlns="http://www.w3.org/2000/svg" viewBox="0 0 1618.75 588.5022594892125" width="1618.75" height="588.5022594892125">
  <!-- svg-source:excalidraw -->
  
  <defs>
    <style>
      @font-face {
        font-family: "Virgil";
        src: url("https://excalidraw.com/Virgil.woff2");
      }
      @font-face {
        font-family: "Cascadia";
        src: url("https://excalidraw.com/Cascadia.woff2");
      }
    </style>
  </defs>
  <rect x="0" y="0" width="1618.75" height="588.5022594892125" fill="#ffffff"></rect><g stroke-linecap="round" transform="translate(594.7777777777778 220.16666666666663) rotate(0 78 44.5)"><path d="M0.25 1.96 C56.82 -0.06, 112.3 0.85, 157.52 -1.7 M0.48 -0.14 C33.52 -0.76, 68.91 -0.52, 156.14 -0.21 M154.35 1.08 C154.77 18.98, 157.93 37.83, 154.65 88.26 M155.51 0.15 C155.43 32.45, 155.69 63.76, 156.96 89.27 M154.18 88.14 C92.86 88.92, 33.29 90.84, 1.02 87.23 M156.56 88.9 C97.98 90.31, 38.04 90.23, -0.04 89.25 M-1.04 89.07 C1.77 65.59, 1.84 38.95, 0.8 -0.54 M-0.57 88.54 C-0.7 63.7, -1.11 37.87, -0.25 -0.54" stroke="#000000" stroke-width="1" fill="none"></path></g><g transform="translate(599.7777777777778 239.66666666666663) rotate(0 73 25)"><text x="73" y="18" font-family="Virgil, Segoe UI Emoji" font-size="20px" fill="#000000" text-anchor="middle" style="white-space: pre;" direction="ltr">Original Food</text><text x="73" y="43" font-family="Virgil, Segoe UI Emoji" font-size="20px" fill="#000000" text-anchor="middle" style="white-space: pre;" direction="ltr">Dapp</text></g><g stroke-linecap="round" transform="translate(986.7777777777778 188.41666666666663) rotate(0 97.5 77.5)"><path d="M0.46 0.42 C63.56 -0.82, 124.98 -0.11, 194.57 -1.47 M-0.99 -0.53 C72.6 1.9, 143.97 1.94, 195.66 -0.52 M193.87 -0.76 C194.32 34.92, 195.38 71.84, 193.35 153.86 M194.9 -0.79 C193.63 58.05, 192.86 117.1, 194.91 154.93 M194.88 153.93 C121.16 151.73, 46.49 151.7, 0.78 155.92 M194.76 154.58 C124.44 154.99, 55.04 154.54, 0.66 154.28 M0.26 154.45 C-0.79 95.78, -2.63 38.18, 1.49 -0.92 M-0.86 154.76 C-1.39 112.62, -1.81 68.43, 0.31 0.44" stroke="#000000" stroke-width="1" fill="none"></path></g><g transform="translate(998.7777777777778 225.41666666666663) rotate(0 86.0625 28.125)"><text x="0" y="20.124999999999993" font-family="Virgil, Segoe UI Emoji" font-size="22.499999999999993px" fill="#000000" text-anchor="start" style="white-space: pre;" direction="ltr">OriginalFood</text><text x="0" y="48.249999999999986" font-family="Virgil, Segoe UI Emoji" font-size="22.499999999999993px" fill="#000000" text-anchor="start" style="white-space: pre;" direction="ltr">smart contract</text></g><g stroke-linecap="round" transform="translate(306.1238125485961 20.729623712866953) rotate(0 17.86383925766313 16.441958616309705)"><path d="M25.93 2.42 C29.16 3.72, 32.04 7.3, 33.48 10.35 C34.92 13.39, 35.42 17.46, 34.56 20.71 C33.69 23.97, 31.27 27.86, 28.28 29.89 C25.28 31.92, 20.4 33.17, 16.59 32.88 C12.79 32.59, 8.23 30.62, 5.46 28.15 C2.7 25.67, 0.45 21.63, 0.01 18.01 C-0.44 14.39, 0.73 9.34, 2.79 6.43 C4.85 3.52, 8.56 1.37, 12.4 0.55 C16.23 -0.27, 23.44 1.28, 25.78 1.52 C28.11 1.75, 26.63 1.61, 26.41 1.98 M12.28 1.76 C15.6 0.41, 20.21 0.78, 23.88 1.88 C27.55 2.99, 32.51 5.33, 34.3 8.41 C36.09 11.5, 35.66 16.93, 34.62 20.4 C33.59 23.88, 30.81 26.96, 28.1 29.26 C25.39 31.56, 22.01 34.25, 18.36 34.21 C14.71 34.18, 9.46 31.59, 6.21 29.07 C2.95 26.55, -0.54 22.64, -1.18 19.09 C-1.82 15.55, 0.28 10.67, 2.38 7.81 C4.48 4.95, 10.09 3.26, 11.41 1.93 C12.73 0.61, 10.29 -0.11, 10.29 -0.14" stroke="#000000" stroke-width="2" fill="none"></path></g><g stroke-linecap="round"><g transform="translate(322.07324038046863 53.235061825020296) rotate(0 -0.37412265274804213 20.43519997434143)"><path d="M-0.73 1.04 C-1.03 7.92, -1.13 33.68, -1.18 40.34 M1.08 0.53 C0.63 7.13, -1.41 32.02, -1.83 38.46" stroke="#000000" stroke-width="2" fill="none"></path></g></g><g stroke-linecap="round"><g transform="translate(320.31008601697135 94.47153047388804) rotate(0 8.185939950454667 12.425038895762611)"><path d="M1.04 0.57 C3.9 4.86, 13.61 21.17, 16.25 25.02 M0.12 -0.17 C2.95 3.84, 12.79 19.14, 15.55 23.27" stroke="#000000" stroke-width="2" fill="none"></path></g></g><g stroke-linecap="round"><g transform="translate(317.97980220756267 92.76773215296873) rotate(0 -6.397145099049794 11.676967108252114)"><path d="M0.57 0.47 C-1.44 4.25, -10.34 19.81, -12.79 23.68 M-0.59 -0.33 C-2.63 3.66, -10.92 18.42, -13.37 22.13" stroke="#000000" stroke-width="2" fill="none"></path></g></g><g stroke-linecap="round"><g transform="translate(300.3888087989924 76.3025056639616) rotate(0 10.609493359941553 -6.648346330004159)"><path d="M0.47 0.71 C3.96 -1.72, 18.38 -11.55, 21.96 -14.01 M-0.74 0.04 C2.59 -2.29, 17.83 -10.62, 21.59 -12.81" stroke="#000000" stroke-width="2" fill="none"></path></g></g><g stroke-linecap="round"><g transform="translate(320.57996999050806 61.63792416001991) rotate(0 8.140602655663997 9.7600964918189)"><path d="M0.71 1.1 C3 4.17, 12.03 16.1, 14.28 18.9 M-0.37 0.62 C2.26 3.35, 13.8 14.25, 16.66 17.36" stroke="#000000" stroke-width="2" fill="none"></path></g></g><g stroke-linecap="round" transform="translate(288.6238125485961 236.979623712867) rotate(0 17.86383925766313 16.441958616309705)"><path d="M21.06 -0.25 C24.45 0.08, 28.75 2.41, 31.15 5.26 C33.56 8.11, 35.45 13.13, 35.47 16.84 C35.49 20.56, 33.77 24.94, 31.27 27.56 C28.77 30.18, 24.26 32.06, 20.47 32.56 C16.69 33.05, 11.96 32.26, 8.56 30.55 C5.16 28.83, 1.21 25.49, 0.1 22.26 C-1.01 19.04, 0.39 14.42, 1.89 11.2 C3.39 7.98, 4.98 4.54, 9.09 2.95 C13.19 1.36, 22.74 1.12, 26.52 1.67 C30.3 2.22, 31.78 6.01, 31.78 6.25 M12.56 -0.02 C15.67 -1.5, 19.44 -0.18, 22.82 0.9 C26.2 1.99, 30.83 3.72, 32.82 6.51 C34.8 9.3, 35.31 14.14, 34.74 17.62 C34.18 21.1, 31.94 24.92, 29.42 27.38 C26.89 29.85, 23.25 32.2, 19.59 32.41 C15.93 32.62, 10.74 30.55, 7.46 28.64 C4.18 26.74, 0.85 24.55, -0.08 20.98 C-1.01 17.41, 0.1 10.27, 1.86 7.2 C3.63 4.13, 8.9 3.48, 10.52 2.57 C12.14 1.65, 11.11 1.87, 11.58 1.71" stroke="#000000" stroke-width="2" fill="none"></path></g><g stroke-linecap="round"><g transform="translate(304.57324038046863 269.48506182502047) rotate(0 0.1351801660412093 20.13940846441693)"><path d="M1.19 0.41 C1.02 6.81, -0.12 32.92, -0.59 39.4 M0.36 -0.42 C0.09 6.67, -0.48 33.91, -0.92 40.69" stroke="#000000" stroke-width="2" fill="none"></path></g></g><g stroke-linecap="round"><g transform="translate(302.81008601697135 310.72153047388815) rotate(0 7.243412518446007 13.41462510662808)"><path d="M0.41 1.17 C2.8 5.05, 12.85 20.69, 15.32 24.47 M-0.83 0.73 C1.27 5.34, 11.63 22.06, 14.12 26.1" stroke="#000000" stroke-width="2" fill="none"></path></g></g><g stroke-linecap="round"><g transform="translate(300.47980220756267 309.01773215296885) rotate(0 -6.518986849702401 10.734513572428966)"><path d="M1.17 -0.46 C-1.26 3.13, -10.82 18.27, -13.34 22 M0.32 -1.75 C-2.35 1.96, -11.66 19.12, -14.2 23.22" stroke="#000000" stroke-width="2" fill="none"></path></g></g><g stroke-linecap="round"><g transform="translate(282.8888087989924 292.5525056639617) rotate(0 11.105850534890465 -6.820560442062458)"><path d="M-0.46 0.16 C2.85 -2.33, 16.84 -11.5, 20.27 -13.8 M1.49 -0.8 C5.17 -2.62, 19.14 -10.54, 22.68 -12.5" stroke="#000000" stroke-width="2" fill="none"></path></g></g><g stroke-linecap="round"><g transform="translate(303.07996999050806 277.88792416002) rotate(0 6.637350184439697 8.83320088945942)"><path d="M0.16 -0.59 C2.38 2.33, 12.08 13.94, 14.49 17.09 M-1.21 1.71 C0.71 4.82, 10.82 15.83, 13.31 18.26" stroke="#000000" stroke-width="2" fill="none"></path></g></g><g stroke-linecap="round" transform="translate(284.8738125485961 479.479623712867) rotate(0 17.86383925766313 16.441958616309705)"><path d="M10.13 1.82 C13.22 -0.03, 18.25 -0.92, 22.06 -0.09 C25.86 0.74, 30.75 3.66, 32.95 6.79 C35.15 9.92, 35.74 14.97, 35.24 18.68 C34.73 22.39, 32.72 26.69, 29.91 29.06 C27.09 31.43, 21.93 32.63, 18.36 32.9 C14.79 33.18, 11.31 32.63, 8.47 30.69 C5.63 28.74, 2.43 24.86, 1.31 21.22 C0.19 17.57, -0.61 12.4, 1.77 8.82 C4.15 5.24, 12.43 1.14, 15.59 -0.28 C18.74 -1.69, 20.63 -0.04, 20.68 0.35 M10.68 2.66 C14.16 1.27, 20.11 -0.22, 23.91 0.34 C27.7 0.9, 31.72 2.84, 33.47 6.04 C35.21 9.23, 35.09 15.61, 34.38 19.51 C33.68 23.41, 31.71 27.25, 29.23 29.42 C26.75 31.58, 23.18 32.64, 19.52 32.51 C15.86 32.37, 10.31 30.62, 7.26 28.61 C4.21 26.6, 2.08 23.76, 1.21 20.43 C0.35 17.11, 0.67 11.95, 2.07 8.67 C3.48 5.4, 8.2 1.82, 9.66 0.77 C11.13 -0.27, 10.63 2.27, 10.86 2.39" stroke="#000000" stroke-width="2" fill="none"></path></g><g stroke-linecap="round"><g transform="translate(300.82324038046863 511.98506182502047) rotate(0 -0.5830011687860406 19.99921901182654)"><path d="M1.18 -1.03 C0.95 5.67, -0.97 34.14, -1.52 41.03 M0.34 1.05 C-0.01 7.37, -1.77 33.33, -2.34 39.51" stroke="#000000" stroke-width="2" fill="none"></path></g></g><g stroke-linecap="round"><g transform="translate(299.06008601697135 553.2215304738882) rotate(0 7.956726379939823 12.296217320251344)"><path d="M-1.03 0.23 C1.66 4.03, 14.07 20.04, 16.94 23.94 M0.63 -0.69 C3.19 3.78, 14.1 21.07, 16.6 25.28" stroke="#000000" stroke-width="2" fill="none"></path></g></g><g stroke-linecap="round"><g transform="translate(296.72980220756267 551.5177321529688) rotate(0 -7.3928870993960345 11.857467346869043)"><path d="M0.23 1.16 C-2.27 5.16, -11.47 19.56, -13.88 22.99 M-1.1 0.72 C-3.9 4.45, -12.65 17.42, -15.02 21.08" stroke="#000000" stroke-width="2" fill="none"></path></g></g><g stroke-linecap="round"><g transform="translate(279.1388087989924 535.0525056639617) rotate(0 10.789993598558567 -7.206596815737328)"><path d="M1.16 -0.37 C4.88 -2.75, 18.12 -11.95, 21.27 -14.04 M0.31 -1.61 C3.99 -3.87, 16.83 -10.62, 20.53 -12.86" stroke="#000000" stroke-width="2" fill="none"></path></g></g><g stroke-linecap="round"><g transform="translate(299.32996999050806 520.38792416002) rotate(0 8.116814049656455 8.823689888372655)"><path d="M-0.37 0.4 C1.96 3.04, 11.63 14.14, 14.25 16.97 M1.63 -0.43 C4.34 2.85, 14.4 14.92, 16.61 18.08" stroke="#000000" stroke-width="2" fill="none"></path></g></g><g stroke-linecap="round"><g transform="translate(361.76326839232615 88.81188282788969) rotate(0 109.84367486748181 88.2907656183101)"><path d="M-0.42 0.82 C35.92 30.11, 181.33 147.16, 217.94 176.37 M1.56 0.21 C38.27 29.07, 183.94 144.95, 220.11 174.5" stroke="#000000" stroke-width="1" fill="none"></path></g><g transform="translate(361.76326839232615 88.81188282788969) rotate(0 109.84367486748181 88.2907656183101)"><path d="M193.08 163.11 C200.8 168.16, 208.55 170.86, 221.48 175.44 M192.21 165.2 C200.53 167.25, 208.49 170.62, 220.43 174.59" stroke="#000000" stroke-width="1" fill="none"></path></g><g transform="translate(361.76326839232615 88.81188282788969) rotate(0 109.84367486748181 88.2907656183101)"><path d="M205.94 147.12 C210.01 156.77, 214.03 164.12, 221.48 175.44 M205.07 149.21 C209.81 155.86, 214.1 163.8, 220.43 174.59" stroke="#000000" stroke-width="1" fill="none"></path></g></g><g stroke-linecap="round"><g transform="translate(761.7777777777778 265.6154486429648) rotate(0 106.53144715026963 0.8104207128632765)"><path d="M0.47 0.11 C36.14 0.52, 178.09 2.11, 213.8 2.5 M-0.74 -0.88 C34.77 -0.86, 176.9 -0.3, 212.75 0.49" stroke="#000000" stroke-width="1" fill="none"></path></g><g transform="translate(761.7777777777778 265.6154486429648) rotate(0 106.53144715026963 0.8104207128632765)"><path d="M184.62 10.09 C192.77 8.74, 200.68 3.43, 213.07 -0.21 M184.04 10.71 C194.4 6.91, 204.67 4.04, 212.79 -0.31" stroke="#000000" stroke-width="1" fill="none"></path></g><g transform="translate(761.7777777777778 265.6154486429648) rotate(0 106.53144715026963 0.8104207128632765)"><path d="M184.86 -10.43 C192.95 -6, 200.79 -5.52, 213.07 -0.21 M184.27 -9.81 C194.51 -6.52, 204.7 -2.28, 212.79 -0.31" stroke="#000000" stroke-width="1" fill="none"></path></g></g><g transform="translate(1442.827777777778 33.41666666666663) rotate(0 69.34999999999991 45.625)"><text x="0" y="21.41666666666666" font-family="Virgil, Segoe UI Emoji" font-size="24.33333333333333px" fill="#000000" text-anchor="start" style="white-space: pre;" direction="ltr">Actor</text><text x="0" y="51.83333333333332" font-family="Virgil, Segoe UI Emoji" font-size="24.33333333333333px" fill="#000000" text-anchor="start" style="white-space: pre;" direction="ltr">registration</text><text x="0" y="82.24999999999999" font-family="Virgil, Segoe UI Emoji" font-size="24.33333333333333px" fill="#000000" text-anchor="start" style="white-space: pre;" direction="ltr">contract</text></g><g transform="translate(1441.2777777777778 388.41666666666663) rotate(0 76.04166666666674 45.625)"><text x="0" y="21.416666666666668" font-family="Virgil, Segoe UI Emoji" font-size="24.33333333333333px" fill="#000000" text-anchor="start" style="white-space: pre;" direction="ltr">Food</text><text x="0" y="51.833333333333336" font-family="Virgil, Segoe UI Emoji" font-size="24.33333333333333px" fill="#000000" text-anchor="start" style="white-space: pre;" direction="ltr">registreation</text><text x="0" y="82.25" font-family="Virgil, Segoe UI Emoji" font-size="24.33333333333333px" fill="#000000" text-anchor="start" style="white-space: pre;" direction="ltr">contract</text></g><g transform="translate(62.5 34.75) rotate(0 114.5 37.5)"><text x="0" y="18" font-family="Virgil, Segoe UI Emoji" font-size="20px" fill="#000000" text-anchor="start" style="white-space: pre;" direction="ltr">Actor registration</text><text x="0" y="43" font-family="Virgil, Segoe UI Emoji" font-size="20px" fill="#000000" text-anchor="start" style="white-space: pre;" direction="ltr">(producer, transporter </text><text x="0" y="68" font-family="Virgil, Segoe UI Emoji" font-size="20px" fill="#000000" text-anchor="start" style="white-space: pre;" direction="ltr">&amp; merchant)</text></g><g stroke-linecap="round" transform="translate(1418.75 10) rotate(0 91.25 70)"><path d="M1.03 -0.29 C46.06 -1.95, 88.25 -0.44, 183.04 -0.02 M-0.47 0.87 C54.26 1.04, 107.1 0.04, 182.65 -0.5 M182.12 0.52 C181.99 55.73, 184.67 107.23, 183.62 139.46 M181.73 -0.02 C182.7 37.09, 181.73 74.67, 182.29 139.8 M183.41 139.64 C124.56 140.6, 65.43 141.18, -0.98 140.25 M183.47 140.46 C129.15 139.67, 76.09 140.49, 0.41 139.14 M-1.63 141.25 C-0.85 106.64, 0.87 74.14, -0.51 1.55 M0.9 139.89 C-1.2 101.53, -1.76 63.73, 0.24 -0.89" stroke="#000000" stroke-width="1" fill="none"></path></g><g stroke-linecap="round" transform="translate(1426.25 367.5) rotate(0 91.25 70)"><path d="M-0.57 0.45 C66.4 1.76, 128.43 0.75, 184.42 1.21 M0.23 -0.69 C54.62 0.57, 108.66 1.09, 182.17 0.76 M183.39 -1.95 C182.43 38.79, 182.5 80.47, 182.37 139.8 M182.1 -0.8 C184.45 34.36, 183.3 71.53, 182.14 140.68 M183.39 141.6 C123.43 138.57, 62.89 137.71, -1.76 139.43 M183.36 140.53 C113.19 139.27, 46.04 139.53, 0.39 139.09 M-0.78 141.3 C0.21 100.99, 0.66 60.9, 0.36 1.6 M0.07 139.79 C0.38 93.79, -0.2 46.05, 0.15 0.37" stroke="#000000" stroke-width="1" fill="none"></path></g><g stroke-linecap="round"><g transform="translate(1204.0406916321444 248.12577523041512) rotate(0 95.2771241809753 -85.11366013790945)"><path d="M0.59 -0.59 C32.4 -29.17, 159.27 -143.38, 191.11 -171.95 M-0.55 1.72 C31.09 -26.62, 158.28 -141.71, 190.24 -170.45" stroke="#000000" stroke-width="1" fill="none"></path></g><g transform="translate(1204.0406916321444 248.12577523041512) rotate(0 95.2771241809753 -85.11366013790945)"><path d="M175.2 -143.7 C180.67 -151.46, 185.13 -159.07, 191.16 -169.79 M176.59 -144.8 C179.26 -151.18, 183.23 -159.81, 190.86 -170.64" stroke="#000000" stroke-width="1" fill="none"></path></g><g transform="translate(1204.0406916321444 248.12577523041512) rotate(0 95.2771241809753 -85.11366013790945)"><path d="M161.45 -158.93 C171.27 -161.87, 180.14 -164.61, 191.16 -169.79 M162.84 -160.04 C169.54 -162.2, 177.39 -166.54, 190.86 -170.64" stroke="#000000" stroke-width="1" fill="none"></path></g></g><g stroke-linecap="round"><g transform="translate(1206.0578510365171 304.227383709671) rotate(0 101.07978524304917 70.76346723102034)"><path d="M0.01 0.18 C33.9 23.78, 169.84 118.48, 203.6 142.3 M-1.44 -0.77 C32.35 22.38, 169.26 116.65, 203.13 140.32" stroke="#000000" stroke-width="1" fill="none"></path></g><g transform="translate(1206.0578510365171 304.227383709671) rotate(0 101.07978524304917 70.76346723102034)"><path d="M174.41 134.22 C183.9 134.98, 194.48 136.9, 201.66 141.64 M174.63 133.59 C185.02 136.06, 196.68 139.25, 202.95 140.85" stroke="#000000" stroke-width="1" fill="none"></path></g><g transform="translate(1206.0578510365171 304.227383709671) rotate(0 101.07978524304917 70.76346723102034)"><path d="M186.1 117.35 C191.95 123.5, 198.79 130.82, 201.66 141.64 M186.32 116.72 C192.12 125.89, 199.2 135.68, 202.95 140.85" stroke="#000000" stroke-width="1" fill="none"></path></g></g><g stroke-linecap="round"><g transform="translate(332.5540191940963 282.0605182237923) rotate(0 119.86259033940735 0.9435388214234308)"><path d="M-1.2 0.81 C38.88 0.95, 200.67 0.72, 240.92 0.69 M0.38 0.19 C40.23 0.46, 199.43 1.5, 239.83 1.7" stroke="#000000" stroke-width="1" fill="none"></path></g><g transform="translate(332.5540191940963 282.0605182237923) rotate(0 119.86259033940735 0.9435388214234308)"><path d="M212.93 11.34 C219.47 7.2, 228.87 4.1, 238.91 3.06 M211.66 12.54 C222.64 8.02, 233.45 4.63, 239.57 2.63" stroke="#000000" stroke-width="1" fill="none"></path></g><g transform="translate(332.5540191940963 282.0605182237923) rotate(0 119.86259033940735 0.9435388214234308)"><path d="M213.05 -9.18 C219.52 -6.39, 228.88 -2.55, 238.91 3.06 M211.77 -7.99 C222.55 -4.83, 233.32 -0.56, 239.57 2.63" stroke="#000000" stroke-width="1" fill="none"></path></g></g><g transform="translate(10 259.75) rotate(0 136 25)"><text x="0" y="18" font-family="Virgil, Segoe UI Emoji" font-size="20px" fill="#000000" text-anchor="start" style="white-space: pre;" direction="ltr">Register Product creation, </text><text x="0" y="43" font-family="Virgil, Segoe UI Emoji" font-size="20px" fill="#000000" text-anchor="start" style="white-space: pre;" direction="ltr">transport or delivery</text></g><g stroke-linecap="round"><g transform="translate(333.75 528.75) rotate(0 117.56807814731724 -110.37193010374904)"><path d="M0.84 1.03 C39.88 -35.95, 196.37 -184.91, 235.32 -221.77 M-0.18 0.52 C38.64 -36.3, 195.58 -183.44, 234.54 -220.51" stroke="#000000" stroke-width="1" fill="none"></path></g><g transform="translate(333.75 528.75) rotate(0 117.56807814731724 -110.37193010374904)"><path d="M222.79 -193.17 C225.42 -204.95, 233.36 -214.94, 235.08 -220.14 M221.6 -194.25 C225.35 -199.83, 228.01 -207.67, 235.37 -219.81" stroke="#000000" stroke-width="1" fill="none"></path></g><g transform="translate(333.75 528.75) rotate(0 117.56807814731724 -110.37193010374904)"><path d="M208.71 -208.09 C216.82 -214.18, 230.23 -218.37, 235.08 -220.14 M207.51 -209.17 C214.59 -211.19, 220.67 -215.4, 235.37 -219.81" stroke="#000000" stroke-width="1" fill="none"></path></g></g><g transform="translate(78.75 509.75) rotate(0 84.5 12.5)"><text x="0" y="18" font-family="Virgil, Segoe UI Emoji" font-size="20px" fill="#000000" text-anchor="start" style="white-space: pre;" direction="ltr">Customer queries</text></g></svg>