<svg version="1.1" xmlns="http://www.w3.org/2000/svg" viewBox="0 0 888 335" width="888" height="335">
  <!-- svg-source:excalidraw -->
  
  <defs>
    <style>
      @font-face {
        font-family: "Virgil";
        src: url("https://excalidraw.com/Virgil.woff2");
      }
      @font-face {
        font-family: "Cascadia";
        src: url("https://excalidraw.com/Cascadia.woff2");
      }
    </style>
  </defs>
  <rect x="0" y="0" width="888" height="335" fill="#ffffff"></rect><g stroke-linecap="round" transform="translate(281.48565603959696 107.06295704620038) rotate(0 18.130516320431923 16.687409393531766)"><path d="M18.64 -0.99 C22.54 -1.31, 27.78 0.64, 30.63 3.34 C33.48 6.05, 35.28 11.71, 35.74 15.25 C36.2 18.78, 35.39 21.73, 33.39 24.55 C31.39 27.36, 27.5 30.94, 23.74 32.14 C19.98 33.34, 14.43 32.98, 10.83 31.76 C7.23 30.54, 4.01 27.84, 2.12 24.83 C0.23 21.81, -1.31 17.27, -0.53 13.66 C0.25 10.04, 2.77 5.39, 6.82 3.13 C10.86 0.88, 20.26 0.35, 23.77 0.13 C27.28 -0.09, 27.97 1.61, 27.86 1.82 M16.43 0.34 C20.02 0.24, 25.94 1.79, 29.36 4.01 C32.79 6.24, 36 10.4, 36.98 13.71 C37.96 17.02, 37.26 20.88, 35.24 23.87 C33.23 26.86, 28.56 30.13, 24.89 31.65 C21.22 33.17, 17.01 33.78, 13.21 32.97 C9.4 32.16, 4.4 29.81, 2.05 26.8 C-0.29 23.78, -1.48 18.38, -0.87 14.89 C-0.26 11.41, 2.58 8.3, 5.71 5.9 C8.85 3.49, 15.9 1.3, 17.95 0.46 C20.01 -0.39, 18.29 0.41, 18.04 0.83" stroke="#000000" stroke-width="2" fill="none"></path></g><g stroke-linecap="round"><g transform="translate(298.1013935958439 140.76880293190948) rotate(0 -0.9057854064383264 20.035803064552056)"><path d="M0.93 0.08 C0.31 6.87, -2.26 34.46, -2.74 40.99 M-0.05 -0.92 C-0.38 5.49, -0.08 32.33, -0.53 39.14" stroke="#000000" stroke-width="2" fill="none"></path></g></g><g stroke-linecap="round"><g transform="translate(296.59268959834276 182.2849372932858) rotate(0 7.606768888134866 12.52134146184926)"><path d="M0.08 -0.96 C2.8 2.98, 14.09 20.19, 16.55 24.54 M-1.33 1.15 C1.25 5.2, 12.81 22.36, 15.87 26" stroke="#000000" stroke-width="2" fill="none"></path></g></g><g stroke-linecap="round"><g transform="translate(294.15272090880205 180.12863930151082) rotate(0 -7.062281386695474 11.195782026121606)"><path d="M-0.96 0.53 C-3.42 4.14, -11.79 18.18, -13.84 21.72 M0.74 -0.24 C-1.97 3.46, -12.44 18.84, -14.86 22.63" stroke="#000000" stroke-width="2" fill="none"></path></g></g><g stroke-linecap="round"><g transform="translate(275.61103102121444 163.84656996424906) rotate(0 10.702724022694895 -7.57455154597227)"><path d="M0.53 -0.14 C3.84 -2.17, 16.72 -10.81, 19.98 -13.12 M-0.65 -1.26 C3 -3.57, 18.23 -13.07, 22.06 -15.01" stroke="#000000" stroke-width="2" fill="none"></path></g></g><g stroke-linecap="round"><g transform="translate(296.7840750592567 149.48015706062995) rotate(0 6.960313739666617 8.332542262505001)"><path d="M-0.14 -1.2 C2.62 1.53, 13.11 13.54, 15.59 16.92 M-1.67 0.78 C1.05 3.58, 12.31 15.11, 14.88 17.86" stroke="#000000" stroke-width="2" fill="none"></path></g></g><g transform="translate(10 116) rotate(0 111.5 37.5)"><text x="0" y="18" font-family="Virgil, Segoe UI Emoji" font-size="20px" fill="#000000" text-anchor="start" style="white-space: pre;" direction="ltr">Actor Registration </text><text x="0" y="43" font-family="Virgil, Segoe UI Emoji" font-size="20px" fill="#000000" text-anchor="start" style="white-space: pre;" direction="ltr">(Farmer, Transporter, </text><text x="0" y="68" font-family="Virgil, Segoe UI Emoji" font-size="20px" fill="#000000" text-anchor="start" style="white-space: pre;" direction="ltr">Merchant)</text></g><g stroke-linecap="round"><g transform="translate(331.06996885463593 161.27593380616042) rotate(0 63.5930500444025 1.644719987590804)"><path d="M-0.93 0.87 C20.58 1.2, 106.66 1.46, 128.12 1.56 M0.78 0.28 C22.32 0.83, 106.67 2.61, 127.79 3.01" stroke="#000000" stroke-width="1" fill="none"></path></g><g transform="translate(331.06996885463593 161.27593380616042) rotate(0 63.5930500444025 1.644719987590804)"><path d="M100.84 14.68 C105.43 12.27, 111.59 8.52, 128.82 4.81 M99.39 13.03 C109.51 9.04, 119.36 5.6, 128.11 3.77" stroke="#000000" stroke-width="1" fill="none"></path></g><g transform="translate(331.06996885463593 161.27593380616042) rotate(0 63.5930500444025 1.644719987590804)"><path d="M101.26 -5.84 C105.68 -3.72, 111.75 -2.94, 128.82 4.81 M99.81 -7.49 C109.89 -4.42, 119.6 -0.8, 128.11 3.77" stroke="#000000" stroke-width="1" fill="none"></path></g></g><g stroke-linecap="round" transform="translate(477 10) rotate(0 200.5 157.5)"><path d="M-0.82 0.1 C148.44 1.2, 298.12 1.63, 401.53 -0.05 M0.32 -0.22 C152.98 -1.54, 305.02 -1.72, 401.08 0.39 M399.68 -0.56 C404.06 82.04, 403.03 164.07, 400.09 315.77 M401.19 0.53 C399.39 75.06, 399.3 150.66, 401.31 315.01 M400.96 316.02 C320.51 316.8, 238.3 316.02, -0.74 314.1 M401.35 314.56 C291.1 315.13, 179.67 314.74, -0.51 315.13 M-0.25 314.98 C-0.43 207, 2.26 98.89, 0.9 1.02 M0.19 315.13 C1.79 208.17, 2.06 102.11, -0.27 0" stroke="#000000" stroke-width="1" fill="none"></path></g><g transform="translate(502 105) rotate(0 33 12.5)"><text x="0" y="18" font-family="Virgil, Segoe UI Emoji" font-size="20px" fill="#000000" text-anchor="start" style="white-space: pre;" direction="ltr">Name :</text></g><g transform="translate(502 66) rotate(0 35 12.5)"><text x="0" y="18" font-family="Virgil, Segoe UI Emoji" font-size="20px" fill="#000000" text-anchor="start" style="white-space: pre;" direction="ltr">Actor :</text></g><g transform="translate(503 142) rotate(0 47 12.5)"><text x="0" y="18" font-family="Virgil, Segoe UI Emoji" font-size="20px" fill="#000000" text-anchor="start" style="white-space: pre;" direction="ltr">Surname :</text></g><g transform="translate(503 184) rotate(0 54 12.5)"><text x="0" y="18" font-family="Virgil, Segoe UI Emoji" font-size="20px" fill="#000000" text-anchor="start" style="white-space: pre;" direction="ltr">Actor Url :</text></g><g stroke-linecap="round" transform="translate(665 107) rotate(0 51.5 9)"><path d="M-1.94 -0.77 C36.85 1.15, 70 1.4, 103.53 -0.81 M0.94 -0.01 C28.36 0.09, 56.4 0.55, 102.58 0.09 M104.65 0.13 C102.43 3.8, 103.55 10.64, 102.66 19.74 M103.52 0.34 C101.97 3.65, 103.45 9.25, 103.86 18.58 M103.76 17.76 C70.94 17.69, 40.62 17.42, 1.71 18.96 M103.4 18.81 C63.99 17.51, 25.8 18.41, 0.1 17.5 M1.55 18.7 C0.93 11.13, -0.4 7.52, 1.03 1.59 M0.71 18.71 C0.21 13.17, -0.62 6.36, 0.79 -0.89" stroke="#000000" stroke-width="1" fill="none"></path></g><g stroke-linecap="round" transform="translate(665 144) rotate(0 51.5 9)"><path d="M1 1.9 C21.9 -0.63, 41.87 -0.9, 103.76 -0.24 M-0.23 0.85 C26.21 0.88, 51.03 0.5, 103.4 0.81 M103.07 0.18 C101.94 4.82, 103.81 9.51, 104.55 18.7 M103.51 0.52 C103.68 6.58, 103.1 12.07, 103.71 18.71 M102.49 19.76 C67.27 15.79, 36.04 16.55, 0.56 16.74 M102.09 18.71 C64.74 17.53, 25.92 18.84, 0.12 18.4 M0.49 18.16 C0.56 10.75, 1.96 6.52, 1.09 0.84 M0.23 17.17 C-0.2 11.08, 0.92 6.04, 0.19 -0.08" stroke="#000000" stroke-width="1" fill="none"></path></g><g stroke-linecap="round" transform="translate(665 186) rotate(0 51.5 9)"><path d="M1.26 -0.73 C23.68 1.32, 47.33 2.28, 101.7 -1.35 M-0.1 0.72 C40.84 -0.76, 80.3 -1.14, 103.3 0.69 M104.41 1.63 C103.26 4.01, 102.97 9.7, 103.01 16.93 M102.36 0.14 C103.49 6.06, 102.26 11.75, 102.21 18.06 M104.68 19.41 C67.4 17.43, 35.94 18.31, -1.93 17.36 M103.31 17.58 C76.04 18.84, 49.53 18.36, -0.07 18.14 M-0.91 16.69 C0.25 14.71, -0.09 11.14, -0.15 1.67 M0.37 17.73 C-0.36 12.33, -0.37 6.27, -0.27 -0.67" stroke="#000000" stroke-width="1" fill="none"></path></g><g stroke-linecap="round" transform="translate(664 233) rotate(0 51.5 9)"><path d="M0.58 0.86 C23.71 1.47, 44.97 -1.26, 101 -0.86 M0.89 -0.95 C33.21 0.36, 65.96 1.35, 103.45 -0.29 M103.77 -0.84 C101.31 8.31, 103.4 15.58, 101.22 19.17 M103.27 -0.82 C102.72 5.97, 103.6 13.16, 103.14 18.55 M102.52 18.66 C76.31 19.94, 51.15 16.62, 1.26 16.99 M102.76 18.08 C76.63 18.16, 52.25 19.29, 0.44 18.61 M0.87 19.61 C0.68 14.24, 0.24 9.43, 1.11 1.77 M0.31 17.77 C0.83 12.31, 0.23 8.32, 0.13 0.77" stroke="#000000" stroke-width="1" fill="none"></path></g><g transform="translate(586 15) rotate(0 85.67999999999995 17)"><text x="0" y="23.99999999999997" font-family="Virgil, Segoe UI Emoji" font-size="27.199999999999996px" fill="#000000" text-anchor="start" style="white-space: pre;" direction="ltr">Original Food</text></g><g transform="translate(505 217) rotate(0 54 25)"><text x="0" y="18" font-family="Virgil, Segoe UI Emoji" font-size="20px" fill="#000000" text-anchor="start" style="white-space: pre;" direction="ltr">Blockchain </text><text x="0" y="43" font-family="Virgil, Segoe UI Emoji" font-size="20px" fill="#000000" text-anchor="start" style="white-space: pre;" direction="ltr">Address :</text></g><g stroke-linecap="round" transform="translate(703 278) rotate(0 48.5 15.5)"><path d="M-1.49 -1.84 C38.02 0.32, 75.78 -2.24, 98.47 -2 M0.37 -0.59 C25.69 0.32, 52.5 -1.35, 96.34 -0.85 M96.13 1.07 C95.25 7.48, 97 14.29, 98.43 31.11 M97.76 0.27 C96.68 8.06, 96.34 14.9, 97.18 30.91 M97.82 30.04 C63.9 30.02, 29.72 29.85, -1.96 32.62 M96.28 30.82 C71.85 32.85, 47.26 32.57, 0 31.26 M1.13 31.52 C0.43 25.27, -0.15 14.72, -1.72 -1.74 M-0.15 31.73 C0.2 20.81, -0.72 10.54, -0.74 0.46" stroke="#000000" stroke-width="1" fill="none"></path></g><g stroke-linecap="round" transform="translate(560 277) rotate(0 48.5 15.5)"><path d="M0.26 0.17 C30.91 -1.18, 61.27 -1.3, 96.29 1.15 M0.22 0.97 C27.4 -0.11, 55.05 0.56, 97.68 0.45 M95.01 -0.44 C96.23 12.21, 97.8 20.03, 98.01 30.32 M96.94 -0.75 C97.93 6.37, 97.2 13.28, 97.27 31.63 M96.07 29.5 C62.13 30.78, 24.46 29.87, -0.54 32.4 M97.21 30.12 C62.99 30.54, 27.75 31.23, 0.28 30.19 M-1.53 31.9 C-0.94 21.59, -0.33 12.15, -1.08 0.37 M-0.09 30.9 C0 20.31, -0.8 6.99, 0.17 -0.82" stroke="#000000" stroke-width="1" fill="none"></path></g><g transform="translate(719 282) rotate(0 32.5 9.908536585365823)"><text x="0" y="13.817073170731692" font-family="Virgil, Segoe UI Emoji" font-size="15.853658536585344px" fill="#000000" text-anchor="start" style="white-space: pre;" direction="ltr">Register</text></g><g transform="translate(576 281) rotate(0 25 10)"><text x="0" y="14" font-family="Virgil, Segoe UI Emoji" font-size="15.853658536585344px" fill="#000000" text-anchor="start" style="white-space: pre;" direction="ltr">Cancel</text></g><g stroke-linecap="round" transform="translate(664.8623629719855 65.23325213154692) rotate(0 48.872931145661596 10.385497868453058)"><path d="M-1.34 -0.82 C30.93 0.37, 58.06 -0.58, 97.13 1 M-0.87 -0.31 C25.97 1.09, 53.87 -0.42, 96.83 -0.06 M95.91 -1.95 C98.71 5.85, 97.82 10.35, 96.99 22.36 M97.48 -0.9 C98.57 6.33, 97.35 11.54, 97.78 20.28 M99.27 20.06 C69.28 20.11, 43.31 22.39, 0.69 20.33 M97.62 20.58 C62.51 20.53, 27.92 21.19, -0.74 21.23 M-0.35 19.06 C-0.12 15.49, 0.29 13.62, 1.19 -1.54 M0.98 21.05 C1.04 15.67, 0.31 11.07, -0.81 -0.58" stroke="#000000" stroke-width="1" fill="none"></path></g><g transform="translate(671.7860282176221 66.6587126232954) rotate(0 31.971042457786893 9.367311802918465)"><text x="0" y="13.734623605836923" font-family="Virgil, Segoe UI Emoji" font-size="14.661879343698457px" fill="#000000" text-anchor="start" style="white-space: pre;" direction="ltr">dropdown</text></g><g stroke-linecap="round"><g transform="translate(742.1492214897412 71.64813111154928) rotate(0 4.063395005100688 4.93081167650908)"><path d="M-0.49 0.85 C0.9 2.38, 7.19 7.1, 8.62 8.39 M1.45 0.24 C2.69 2, 6.91 8.04, 7.86 9.62" stroke="#000000" stroke-width="1" fill="none"></path></g></g><g stroke-linecap="round"><g transform="translate(750.5074796775962 80.27032564045624) rotate(0 3.491085491156923 -4.2873546015781585)"><path d="M0.85 0.37 C1.77 -1.04, 4.06 -7.52, 4.75 -8.94 M-0.17 -0.49 C1.23 -1.67, 6.46 -5.9, 7.15 -7.51" stroke="#000000" stroke-width="1" fill="none"></path></g></g></svg>